<?xml version="1.0" encoding="UTF-8"?>
<svg xmlns="http://www.w3.org/2000/svg" width="1600" height="900" viewBox="0 0 1600 900">
  <defs>
    <linearGradient id="sky-campaign-south_silesia" x1="0" y1="0" x2="0" y2="1">
      <stop offset="0%" stop-color="#13315c"/>
      <stop offset="60%" stop-color="#3d7b4f"/>
      <stop offset="100%" stop-color="#2c4f2f"/>
    </linearGradient>
  </defs>
  <rect width="1600" height="900" fill="url(#sky-campaign-south_silesia)"/>
  <ellipse cx="1260" cy="180" rx="170" ry="110" fill="rgba(250,204,21,0.22)"/>
  <path d="M0 640 Q180 520 340 590 T700 570 T1100 610 T1600 540 V900 H0 Z" fill="rgba(15,23,42,0.35)"/>
  <path d="M0 720 Q220 600 420 670 T860 650 T1280 700 T1600 640 V900 H0 Z" fill="rgba(2,6,23,0.48)"/>
  <g fill="rgba(248,250,252,0.1)"><path d="M0 560 Q260 460 480 520 T980 500 T1600 530 V900 H0 Z"/><rect x="1180" y="280" width="90" height="300"/><rect x="1150" y="250" width="150" height="30"/></g>
</svg>