<?xml version="1.0" encoding="UTF-8"?>
<svg xmlns="http://www.w3.org/2000/svg" width="96" height="96" viewBox="0 0 96 96">
  <defs>
    <radialGradient id="bg-elena" cx="50%" cy="35%" r="70%">
      <stop offset="0%" stop-color="rgba(192,132,252,0.95)"/>
      <stop offset="100%" stop-color="rgba(15,23,42,0.98)"/>
    </radialGradient>
  </defs>
  <rect x="4" y="4" width="88" height="88" rx="18" fill="url(#bg-elena)" stroke="#bfdbfe" stroke-width="2"/>
  <ellipse cx="48" cy="79" rx="24" ry="8" fill="rgba(2,6,23,0.45)"/>
  <circle cx="48" cy="34" r="16" fill="rgba(248,250,252,0.92)" opacity="0.92"/>
  
  <path d="M24 78 Q48 54 72 78 L72 92 L24 92 Z" fill="rgba(192,132,252,0.55)"/>
  <path d="M30 76 Q48 46 66 76 L60 92 L36 92 Z" fill="rgba(192,132,252,0.92)" stroke="rgba(192,132,252,0.8)" stroke-width="2"/>
  <path d="M39 52 Q48 58 57 52" stroke="rgba(15,23,42,0.7)" stroke-width="3" stroke-linecap="round"/>
  <circle cx="42" cy="31" r="2.5" fill="rgba(15,23,42,0.75)"/>
  <circle cx="54" cy="31" r="2.5" fill="rgba(15,23,42,0.75)"/>
  <path d="M68 18 h8 v8 h-8 z" fill="#c084fc" opacity="0.9"/><path d="M72 19 v6 M69 22 h6" stroke="#f8fafc" stroke-width="1.5"/>
  <rect x="10" y="70" width="30" height="16" rx="8" fill="rgba(2,6,23,0.55)"/>
  <text x="25" y="81" text-anchor="middle" font-family="system-ui, sans-serif" font-size="10" font-weight="700" fill="#f8fafc">EL</text>
</svg>